HIERARCHY
ROOT Hips
{
    OFFSET 0.0 0.0 0.0
    CHANNELS 6 Xposition Yposition Zposition Zrotation Xrotation Yrotation
    JOINT LHipJoint
    {
        OFFSET 0.1 0.0 0.0
        CHANNELS 3 Zrotation Xrotation Yrotation
        JOINT LeftHip
        {
            OFFSET 0.11797939240932465 0.0 0.0
            CHANNELS 3 Zrotation Xrotation Yrotation
            JOINT LeftKnee
            {
                OFFSET 0.0 0.0 -0.5369522571563721
                CHANNELS 3 Zrotation Xrotation Yrotation
                JOINT LeftAnkle
                {
                    OFFSET 0.0 0.0 -0.5022242069244385
                    CHANNELS 3 Zrotation Xrotation Yrotation
                    End Site
                    {
                        OFFSET 0.0 -0.1 0.0
                    }
                }
            }
        }
    }
    JOINT lowerback
    {
        OFFSET 0.0 0.0 0.1
        CHANNELS 3 Zrotation Xrotation Yrotation
        JOINT Chest
        {
            OFFSET 0.0 0.0 0.22717846930027008
            CHANNELS 3 Zrotation Xrotation Yrotation
            JOINT Chest2
            {
                OFFSET 0.0 0.0 0.25233614444732666
                CHANNELS 3 Zrotation Xrotation Yrotation
                JOINT LeftCollar
                {
                    OFFSET 0.1 0.0 0.0
                    CHANNELS 3 Zrotation Xrotation Yrotation
                    JOINT LeftShoulder
                    {
                        OFFSET 0.1382496953010559 0.0 0.0
                        CHANNELS 3 Zrotation Xrotation Yrotation
                        JOINT LeftElbow
                        {
                            OFFSET 0.25486326217651367 0.0 0.0
                            CHANNELS 3 Zrotation Xrotation Yrotation
                            JOINT LeftWrist
                            {
                                OFFSET 0.24985063076019287 0.0 0.0
                                CHANNELS 3 Zrotation Xrotation Yrotation
                                End Site
                                {
                                    OFFSET 0.1 0.0 0.0
                                }
                            }
                        }
                    }
                }
                JOINT Neck
                {
                    OFFSET 0.0 0.0 0.1
                    CHANNELS 3 Zrotation Xrotation Yrotation
                    JOINT Head
                    {
                        OFFSET 0.0 0.0 0.1581210047006607
                        CHANNELS 3 Zrotation Xrotation Yrotation
                        End Site
                        {
                            OFFSET 0.0 0.0 0.1347239911556244
                        }
                    }
                }
                JOINT RightCollar
                {
                    OFFSET -0.1 0.0 0.0
                    CHANNELS 3 Zrotation Xrotation Yrotation
                    JOINT RightShoulder
                    {
                        OFFSET -0.1382496953010559 0.0 0.0
                        CHANNELS 3 Zrotation Xrotation Yrotation
                        JOINT RightElbow
                        {
                            OFFSET -0.25486326217651367 0.0 0.0
                            CHANNELS 3 Zrotation Xrotation Yrotation
                            JOINT RightWrist
                            {
                                OFFSET -0.24985063076019287 0.0 0.0
                                CHANNELS 3 Zrotation Xrotation Yrotation
                                End Site
                                {
                                    OFFSET -0.1 0.0 0.0
                                }
                            }
                        }
                    }
                }
            }
        }
    }
    JOINT RHipJoint
    {
        OFFSET -0.1 0.0 0.0
        CHANNELS 3 Zrotation Xrotation Yrotation
        JOINT RightHip
        {
            OFFSET -0.11797939240932465 0.0 0.0
            CHANNELS 3 Zrotation Xrotation Yrotation
            JOINT RightKnee
            {
                OFFSET 0.0 0.0 -0.5369522571563721
                CHANNELS 3 Zrotation Xrotation Yrotation
                JOINT RightAnkle
                {
                    OFFSET 0.0 0.0 -0.5022242069244385
                    CHANNELS 3 Zrotation Xrotation Yrotation
                    End Site
                    {
                        OFFSET 0.0 -0.1 0.0
                    }
                }
            }
        }
    }
}
MOTION
Frames: 5
Frame Time: 0.03333333333333333
0.00016112749290186912 1.4324285984039307 1.7372440197505057e-05 -75.66676131020235 -19.340780444652918 -100.25880343817624 -3.1805546814635168e-15 6.361109362927033e-15 3.1805546814635168e-15 4.73501367632508 -35.81544268849094 20.616052403972336 14.703085817371209 48.90901868170589 -10.772731930132064 8.827812596100317e-32 -3.1805546814635168e-15 3.1805546814635168e-15 -3.1805546814635168e-15 6.361109362927033e-15 3.1805546814635168e-15 -1.1795359088396602 10.175994233744039 -1.388203028734572 19.972676646262816 -1.6222059512974938e-06 3.290297684624271e-07 3.1805546814635168e-15 -7.156248033292914e-15 1.9862578341225716e-31 -40.564783221958876 -1.0974783897116125 60.80925566742856 -15.837538659559875 6.608106345481037e-07 1.4489002056234105e-06 0.0 -3.1805546814635168e-15 0.0 3.1805546814635168e-15 -7.156248033292914e-15 1.9862578341225716e-31 16.70401942278356 0.9565793465416704 19.105174346095215 3.1805546814635168e-15 -7.156248033292914e-15 1.9862578341225716e-31 -40.632859109712086 12.885494977694712 -41.73440638945322 131.82609973428387 8.256248700974348e-07 -2.263772963566169e-06 -7.951386703658792e-16 3.1805546814635168e-15 3.1805546814635168e-15 -3.1805546814635168e-15 6.361109362927033e-15 3.1805546814635168e-15 3.9627029924297665 -30.957390137612723 6.946609810508399 -0.787017554113611 51.16039683570899 -6.411577932024293 3.1805546814635164e-15 8.827812596100317e-32 3.1805546814635164e-15
0.000160075695021078 1.432429552078247 1.7498285160399973e-05 -75.85734707747714 -19.003156653658774 -100.41204836210075 -3.531125038440127e-31 -6.3611093629270335e-15 -6.3611093629270335e-15 4.808024597215189 -35.414962069733576 20.41941205875993 13.858538615940821 48.2138962419987 -9.610145215206355 3.1805546814635168e-15 8.827812596100317e-32 3.1805546814635168e-15 -3.531125038440127e-31 -6.3611093629270335e-15 -6.3611093629270335e-15 -1.237691055609947 10.35848916552592 -1.6083768056673593 20.30011794759951 2.197651026211524e-06 8.068030047566249e-07 -7.951386703658792e-15 6.3611093629270335e-15 -1.590277340731758e-15 -45.87906843395091 3.178083083414118 59.16173067935789 -13.17715773096771 4.227532438365746e-06 5.3575578228943345e-06 0.0 0.0 0.0 -7.951386703658792e-15 6.3611093629270335e-15 -1.590277340731758e-15 16.50321291806135 1.4495881445573173 19.10107805968911 -7.951386703658792e-15 6.3611093629270335e-15 -1.590277340731758e-15 -41.39704079106664 11.977631127715053 -41.11484848054479 132.43066217470874 3.1999701795106515e-07 -1.2021288650996042e-06 0.0 0.0 0.0 -3.531125038440127e-31 -6.3611093629270335e-15 -6.3611093629270335e-15 3.935448450805827 -30.031176454662845 6.375599806022795 -1.675570066028152 50.91530393926828 -5.386822555604189 3.1805546814635164e-15 8.827812596100317e-32 3.1805546814635164e-15
0.00015931547386571765 1.4324281215667725 1.8740189261734486e-05 -75.4030407980197 -19.173536809610276 -99.73764939585473 9.541664044390553e-15 -3.1805546814635168e-15 6.361109362927035e-15 4.498568266824825 -34.84987877529813 20.11872955788451 13.298273587904289 46.77372071183991 -8.395026599714571 3.1805546814635164e-15 3.1805546814635164e-15 -3.1805546814635164e-15 9.541664044390553e-15 -3.1805546814635168e-15 6.361109362927035e-15 -1.121613794061495 9.830029868769994 -2.066053916175535 20.1532222218705 2.3988746988775526e-07 -5.212400699371901e-07 1.5902773407317584e-15 -2.2069531490250793e-32 -1.5902773407317584e-15 -47.07667341663511 6.494331876042542 58.35635549275886 -11.502168102016102 -2.7229552934379804e-06 1.8075601849871104e-06 -6.361109362927032e-15 -3.180554681463516e-15 -1.7655625192200634e-31 1.5902773407317584e-15 -2.2069531490250793e-32 -1.5902773407317584e-15 16.336276160139803 1.379089772027956 18.412717267170994 1.5902773407317584e-15 -2.2069531490250793e-32 -1.5902773407317584e-15 -41.29830752387203 10.164671292119895 -40.774239014626154 132.06671107884245 -9.943819274901796e-07 -4.4704609055266997e-07 7.951386703658792e-16 0.0 0.0 9.541664044390553e-15 -3.1805546814635168e-15 6.361109362927035e-15 3.7324671955913833 -29.82599042389474 5.24164652530268 -2.5822555259217377 50.334966111427526 -4.962836216112004 6.3611093629270335e-15 6.3611093629270335e-15 4.770832022195275e-15
0.00014935695799067616 1.4324313402175903 1.4310600818134844e-05 -76.35526865008359 -22.03727548435622 -100.59870230555201 3.1805546814635164e-15 0.0 0.0 4.245823599457632 -31.701791260664073 20.68444126100703 12.422428667304573 43.983236345589354 -7.436830461420104 3.1805546814635168e-15 6.361109362927035e-15 6.361109362927035e-15 3.1805546814635164e-15 0.0 0.0 -1.10715287459044 9.134314942194713 -2.0627889564361377 20.344788176421023 4.620288961331828e-07 -2.131267869662175e-06 9.541664044390549e-15 0.0 0.0 -45.08072977370237 6.54960982167582 57.428270917923925 -12.04800855810615 7.1646777177957635e-06 -2.2250361729970084e-06 8.827812596100317e-32 3.1805546814635168e-15 -3.1805546814635168e-15 9.541664044390549e-15 0.0 0.0 13.22666329980444 1.993284141517111 18.522069699205446 9.541664044390549e-15 0.0 0.0 -43.169144205157636 11.421558683054359 -41.97855256607966 131.92148242155224 3.7038456918327783e-07 -1.9541369499658117e-06 -1.590277340731758e-15 -9.939233379573487e-17 -1.3793457181406746e-33 3.1805546814635164e-15 0.0 0.0 3.6255203876996176 -27.652296947473516 6.58973000572264 -1.2587725271673762 48.93787709998874 -7.265581885656387 -1.5902773407317584e-15 1.1034765745125397e-31 -7.951386703658792e-15
0.00013958824274595827 1.4324309825897217 1.1147771147079766e-05 -75.33538786169306 -21.5807762549713 -98.60522415059785 -6.3611093629270335e-15 3.531125038440127e-31 -6.3611093629270335e-15 2.8357452820597597 -31.6322722243145 17.72250292064799 11.344624296718663 42.17531931953886 -5.280692834779955 0.0 -3.1805546814635164e-15 0.0 -6.3611093629270335e-15 3.531125038440127e-31 -6.3611093629270335e-15 -0.6735690791366639 8.298095790504188 -2.871781080140217 20.81799980120958 1.8232421473212494e-06 -8.480517713988748e-07 3.1805546814635164e-15 -5.565970692561154e-15 -7.951386703658792e-15 -50.88308848723961 10.76259991728306 57.90636413232518 -11.535975770383386 7.380104688180435e-06 1.559522206549493e-06 -6.3611093629270335e-15 -3.1805546814635168e-15 -1.7655625192200634e-31 3.1805546814635164e-15 -5.565970692561154e-15 -7.951386703658792e-15 13.147713760430829 1.4029876151638636 18.883911905132614 3.1805546814635164e-15 -5.565970692561154e-15 -7.951386703658792e-15 -42.96843777733057 10.51746569497887 -42.52554337136268 132.38621685560577 -2.1163818307149294e-06 -3.1109184809116716e-06 -7.951386703658792e-16 2.9817700138720468e-15 2.0690185772110117e-32 -6.3611093629270335e-15 3.531125038440127e-31 -6.3611093629270335e-15 2.455732590453583 -27.855655541221093 4.226171740865903 -1.0639139678910388 48.774796735717224 -7.0500743465941555 -1.5902773407317584e-15 6.361109362927033e-15 1.5902773407317584e-15
